<svg xmlns="http://www.w3.org/2000/svg" width="28.114" height="40" viewBox="0 0 28.114 40">
  <path id="mylogo" d="M22.981,18.752a13.87,13.87,0,0,0,.844-1.615q1.975-5.569,3.9-11.158c.687-1.984.845-2.126,2.9-1.737,1.718.325,3.421.751,5.127,1.151a3.487,3.487,0,0,1,2.813,4.52c-1.185,4.452-2.42,8.894-3.811,13.285-1.329,4.194-2.936,8.3-4.31,12.479-.579,1.76-.78,3.643-1.321,5.418-.784,2.573-1.712,3.149-4.387,2.932a17.458,17.458,0,0,1-2.759-.453c-2.047-.506-2.882-1.6-3.193-3.7-.537-3.63.386-7.119.821-10.665a5.031,5.031,0,0,0-.679-2.844c-2.421-4.343-4.96-8.62-7.433-12.935a9.142,9.142,0,0,1-.764-1.869c-.406-1.33.2-2.031,1.577-1.8a9.571,9.571,0,0,1,6.247,3.465C19.966,15.008,21.4,16.776,22.981,18.752Z" transform="translate(-10.607 -4.069)" fill="#ffc95b"/>
</svg>
